<svg width="107" height="107" viewBox="0 0 107 107" fill="none" xmlns="http://www.w3.org/2000/svg">
<g opacity="0.56" clip-path="url(#clip0_50_130)">
<path d="M50.6404 27.1348C40.9544 21.6172 32.0848 20.7206 26.8409 25.2234C22.9317 28.5828 21.6638 34.4139 22.993 41.5859C23.1083 42.1969 23.6924 42.6019 24.3034 42.4866C24.9132 42.3745 25.3194 41.7872 25.204 41.1762C24.0074 34.7138 25.098 29.6837 28.3067 26.9269C32.6608 23.1864 40.5744 23.9883 49.5263 29.0853C50.063 29.4033 50.7525 29.2229 51.0682 28.6927C51.3817 28.1581 51.2057 27.4665 50.6689 27.1485L50.6404 27.1348ZM25.8257 50.7341C28.3951 56.8001 32.3153 63.0177 37.2578 68.7716C49.2265 82.7035 64.3896 90.6245 74.1468 88.0202C74.7453 87.856 75.1 87.2358 74.9358 86.6373C74.7737 86.0432 74.1634 85.692 73.5684 85.8463C64.836 88.1803 50.4306 80.6549 38.968 67.3081C34.172 61.7279 30.3726 55.7045 27.8959 49.86C27.6662 49.2792 27.0072 49.0035 26.433 49.2356C25.8589 49.4676 25.5799 50.1255 25.8119 50.6996L25.8257 50.7341Z" fill="#47848F"/>
<path d="M78.4421 67.7431C88.0255 62.1177 93.2148 54.8987 91.9391 48.1233C90.9991 43.1366 86.7062 39.1741 80.0114 36.7251C79.4265 36.5125 78.7805 36.8119 78.5679 37.3968C78.3565 37.9783 78.6526 38.6231 79.2363 38.839C85.2584 41.0409 88.9572 44.4578 89.7245 48.543C90.7838 54.1718 86.1575 60.6102 77.3016 65.8092C76.7573 66.1146 76.5685 66.8004 76.8718 67.3403C77.1784 67.8814 77.8631 68.0734 78.403 67.7701L78.4421 67.7431ZM70.5498 34.5168C63.9635 33.6804 56.5447 33.9598 49.0164 35.3751C30.3835 38.8849 15.649 48.5269 13.6989 58.5829C13.5633 59.1911 13.9465 59.7886 14.5546 59.9242C15.1595 60.0586 15.7603 59.6766 15.8948 59.0718L15.9078 59.0134C17.6401 50.085 31.6061 40.944 49.4328 37.5885C56.736 36.2127 63.9213 35.9441 70.2671 36.7479C70.8864 36.8096 71.4363 36.3616 71.5013 35.7435C71.5593 35.1452 71.141 34.6057 70.5498 34.5168Z" fill="#47848F"/>
<path d="M29.3737 71.5291C29.4467 82.6617 33.1026 90.7835 39.6209 93.0705C44.371 94.7372 49.9048 93.0407 55.3321 88.5431C55.8213 88.1627 55.9109 87.4531 55.5305 86.964C55.1468 86.4737 54.4406 86.3853 53.9548 86.7668L53.9021 86.8113C49.0225 90.8565 44.2576 92.3152 40.3651 90.9495C34.9519 89.0502 31.6879 81.8069 31.6239 71.5147C31.6336 70.8957 31.1386 70.3849 30.5163 70.374C29.8961 70.3676 29.382 70.8615 29.3756 71.4816L29.3737 71.5291ZM62.4069 80.9446C66.2965 75.7296 69.6543 69.3166 72.1254 62.2738C78.292 44.6983 77.4559 27.3888 70.0602 20.4222C69.6035 20.0027 68.8888 20.0335 68.4714 20.4946C68.0619 20.9437 68.082 21.6361 68.5187 22.0598C75.1125 28.2708 75.9061 44.6984 70.001 61.5285C67.604 68.3601 64.3533 74.5735 60.6025 79.6039C60.2168 80.0909 60.3019 80.7987 60.7934 81.1824C61.2816 81.5648 61.9894 81.4798 62.3719 80.9916L62.4069 80.9446ZM82.7506 86.9191C83.7377 84.1164 82.2623 81.0461 79.4584 80.0623C76.6557 79.0753 73.5821 80.5495 72.5983 83.3534C71.6145 86.1573 73.092 89.232 75.8971 90.2125C78.6977 91.1951 81.7647 89.7186 82.7506 86.9191ZM80.6295 86.1749C80.0566 87.8078 78.2697 88.6665 76.6369 88.0935C75.004 87.5206 74.142 85.7326 74.7138 84.103L74.7149 84.0997C75.2879 82.4669 77.0781 81.6093 78.7109 82.1823C80.3405 82.754 81.1991 84.5409 80.6295 86.1749ZM13.0126 68.1523C15.8165 69.136 18.8901 67.6618 19.8739 64.8579C20.8577 62.054 19.3856 58.9849 16.5796 57.9967C13.7756 57.0129 10.7009 58.4904 9.72044 61.2955C8.73665 64.0994 10.2087 67.1685 13.0126 68.1523ZM13.7568 66.0312C12.124 65.4583 11.2653 63.6714 11.8382 62.0385C12.4111 60.4056 14.198 59.547 15.8309 60.1199C17.4637 60.6928 18.3224 62.4797 17.7495 64.1126C17.1766 65.7454 15.3897 66.6041 13.7568 66.0312Z" fill="#47848F"/>
<path d="M63.8349 24.0583C66.6388 25.0421 69.7102 23.5635 70.694 20.7596C71.6778 17.9557 70.2024 14.8854 67.3985 13.9016C64.5946 12.9178 61.5243 14.3932 60.5405 17.1971C59.5567 20.001 61.031 23.0745 63.8349 24.0583ZM64.5802 21.934C62.9474 21.361 62.0887 19.5741 62.6616 17.9413C63.2345 16.3084 65.0214 15.4498 66.6543 16.0227C68.2871 16.5956 69.1458 18.3825 68.5729 20.0153C68 21.6482 66.2131 22.5069 64.5802 21.934ZM52.3196 59.3593C50.1833 59.0914 48.6726 57.1461 48.9405 55.0098C49.2073 52.8769 51.1538 51.3628 53.2867 51.6296C55.4192 51.9295 56.903 53.8987 56.5998 56.03C56.3062 58.1128 54.4101 59.5889 52.3196 59.3593Z" fill="#47848F"/>
<path d="M27.228 49.2182C26.9773 49.1302 26.6998 49.1292 26.4328 49.2356C25.8586 49.4676 25.5796 50.1255 25.8116 50.6996L25.8255 50.7341C28.3948 56.8001 32.3151 63.0177 37.2576 68.7716C39.8113 71.746 42.5131 74.4463 45.2752 76.827L46.0773 74.541C43.6346 72.3798 41.2391 69.9574 38.9644 67.3069C34.1685 61.7267 30.369 55.7033 27.8924 49.8588C27.7723 49.5463 27.5216 49.3212 27.228 49.2182ZM43.6866 23.9133C36.8121 21.5013 30.7968 21.8248 26.8418 25.22C22.9326 28.5795 21.6647 34.4106 22.9939 41.5826C23.0714 41.9951 23.3605 42.3114 23.7267 42.4399C23.9048 42.5024 24.1025 42.5199 24.3043 42.4833C24.9141 42.3712 25.3203 41.7839 25.2049 41.1729C24.0083 34.7105 25.0989 29.6804 28.3076 26.9236C31.5554 24.1398 36.7825 23.8768 42.9445 26.0389C45.0425 26.775 47.2488 27.7936 49.5249 29.0886C49.5895 29.1261 49.6565 29.157 49.7224 29.1802C50.2205 29.355 50.7853 29.1604 51.0646 28.6916C51.3814 28.1581 51.2054 27.4665 50.6687 27.1485L50.6368 27.1337C48.26 25.7773 45.9264 24.6992 43.6866 23.9133Z" fill="#3E737C"/>
<path d="M14.9255 59.9432C14.8382 59.9385 14.7486 59.9404 14.6623 59.9435C14.7518 59.9526 14.8402 59.954 14.9255 59.9432ZM60.2727 34.0934C56.612 34.2316 52.8285 34.6565 49.0173 35.3717C30.8845 38.7865 16.4451 48.0097 13.885 57.7664C14.6344 57.6367 15.4179 57.6634 16.193 57.8723C18.8293 49.313 32.3621 40.7943 49.4348 37.5818C52.8258 36.9451 56.1964 36.5458 59.4706 36.3794L60.2727 34.0934Z" fill="#3E737C"/>
<path d="M30.8724 70.436C30.7603 70.3967 30.6423 70.3738 30.5163 70.3741C29.8961 70.3676 29.382 70.8615 29.3756 71.4817L29.3737 71.5292C29.447 82.6397 33.0909 90.7536 39.5846 93.0579L40.3288 90.9368C34.9369 89.0191 31.6882 81.7848 31.6206 71.5136C31.6317 71.0173 31.3144 70.5911 30.8724 70.436ZM14.9259 59.9432C15.2253 59.9557 15.5307 60.0146 15.8276 60.1188C17.4604 60.6917 18.3191 62.4786 17.7462 64.1115C17.1733 65.7443 15.3864 66.603 13.7535 66.0301C12.1206 65.4572 11.262 63.6703 11.8349 62.0374C12.2724 60.7905 13.4181 59.9959 14.6628 59.9435C14.7535 59.9383 14.8386 59.9385 14.9259 59.9432ZM16.5795 57.9968C16.4542 57.9528 16.3211 57.9098 16.1922 57.8757C15.4205 57.6679 14.6337 57.6401 13.8843 57.7698C12.0229 58.0911 10.3873 59.3844 9.71712 61.2944C8.73333 64.0983 10.2098 67.1652 13.0093 68.1512C15.8132 69.135 18.8868 67.6608 19.8705 64.8568C20.8576 62.0541 19.3856 58.985 16.5795 57.9968Z" fill="#3E737C"/>
<path d="M54.0379 51.8117C53.7971 51.7272 53.5482 51.6658 53.2867 51.6296C51.1538 51.3628 49.2073 52.8769 48.9405 55.0098C48.7093 56.8515 49.8059 58.5515 51.4792 59.1571L54.0544 51.8174C54.0478 51.8151 54.0445 51.814 54.0379 51.8117ZM67.3622 13.8889C64.5679 12.9307 61.5197 14.4064 60.5405 17.1971C59.5614 19.9878 61.0181 23.0478 63.7997 24.0423L64.5439 21.9212C62.9345 21.3343 62.0922 19.5643 62.6616 17.9413C63.2299 16.3216 64.9947 15.4626 66.618 16.0099L67.3622 13.8889Z" fill="#3E737C"/>
</g>
<defs>
<clipPath id="clip0_50_130">
<rect width="83.9008" height="83.9008" fill="white" transform="translate(27.7776) rotate(19.3342)"/>
</clipPath>
</defs>
</svg>
