<svg width="75" height="80" viewBox="0 0 75 80" fill="none" xmlns="http://www.w3.org/2000/svg">
<path d="M27.3041 3.08081L73.6027 19.7612L54.0213 74.1117L7.72273 57.4313L27.3041 3.08081Z" fill="#985A23"/>
<path d="M64.5002 32.4016L48.545 76.6872L2.24641 60.0068L21.8278 5.65625L58.0614 18.7105L64.5002 32.4016Z" fill="#F7FCFF"/>
<path d="M21.8278 5.65625L15.3006 23.7731L61.5992 40.4535L64.5002 32.4016L58.0614 18.7105L21.8278 5.65625Z" fill="#FACF5B"/>
<path d="M64.5001 32.4015L56.4482 29.5006C55.9143 29.3083 55.4787 28.9117 55.2372 28.3982C54.9957 27.8847 54.9681 27.2963 55.1605 26.7624L58.0614 18.7104L64.5001 32.4015Z" fill="#CB782E"/>
<path d="M37.8501 14.8401C37.5832 14.744 37.289 14.7578 37.0322 14.8785C36.7755 14.9993 36.5772 15.2171 36.481 15.484L33.9427 22.5295C33.7504 23.0633 33.3538 23.4989 32.8403 23.7404C32.3268 23.9819 31.7384 24.0096 31.2045 23.8172C30.6706 23.6249 30.235 23.2283 29.9935 22.7148C29.752 22.2013 29.7244 21.6129 29.9168 21.079C30.0129 20.8121 29.9991 20.5178 29.8784 20.2611C29.7576 20.0043 29.5398 19.8061 29.2729 19.7099C29.0059 19.6137 28.7117 19.6275 28.455 19.7483C28.1982 19.869 27.9999 20.0868 27.9038 20.3538C27.5191 21.4215 27.5743 22.5983 28.0573 23.6254C28.5403 24.6524 29.4115 25.4455 30.4793 25.8302C31.547 26.2149 32.7238 26.1596 33.7509 25.6766C34.7779 25.1936 35.571 24.3224 35.9557 23.2547L38.494 16.2093C38.5902 15.9423 38.5764 15.6481 38.4556 15.3914C38.3349 15.1346 38.1171 14.9363 37.8501 14.8401ZM45.3697 53.9376C44.8358 53.7453 44.4002 53.3487 44.1587 52.8352C43.9172 52.3217 43.8896 51.7333 44.082 51.1994L44.8072 49.1864C45.1919 48.1186 45.1367 46.9418 44.6537 45.9148C44.1707 44.8877 43.2995 44.0947 42.2317 43.71C41.9648 43.6138 41.6706 43.6276 41.4138 43.7483C41.157 43.8691 40.9588 44.0869 40.8626 44.3538C40.7664 44.6208 40.7802 44.915 40.901 45.1717C41.0217 45.4285 41.2395 45.6268 41.5065 45.7229C42.0403 45.9153 42.476 46.3118 42.7174 46.8254C42.9589 47.3389 42.9866 47.9273 42.7942 48.4612L42.069 50.4741C41.8628 51.0455 41.7809 51.6544 41.8288 52.2599C41.8768 52.8655 42.0534 53.4539 42.3469 53.9857C41.7817 54.2081 41.2704 54.5486 40.8472 54.9845C40.4241 55.4203 40.0989 55.9415 39.8933 56.5131L39.168 58.5261C38.9757 59.0599 38.5792 59.4956 38.0656 59.737C37.5521 59.9785 36.9637 60.0062 36.4298 59.8138C36.1629 59.7176 35.8687 59.7315 35.6119 59.8522C35.3552 59.973 35.1569 60.1908 35.0607 60.4577C34.9645 60.7246 34.9784 61.0188 35.0991 61.2756C35.2199 61.5324 35.4377 61.7306 35.7046 61.8268C36.7723 62.2115 37.9492 62.1563 38.9762 61.6733C40.0032 61.1903 40.7963 60.3191 41.181 59.2513L41.9063 57.2383C42.0986 56.7044 42.4952 56.2688 43.0087 56.0273C43.5222 55.7858 44.1106 55.7582 44.6445 55.9506C44.9114 56.0468 45.2056 56.0329 45.4624 55.9122C45.7191 55.7914 45.9174 55.5736 46.0136 55.3067C46.1098 55.0398 46.096 54.7456 45.9752 54.4888C45.8545 54.232 45.6367 54.0338 45.3697 53.9376ZM24.6774 41.934C24.8697 41.4002 25.2663 40.9646 25.7798 40.7231C26.2933 40.4816 26.8817 40.454 27.4156 40.6463C27.6825 40.7425 27.9767 40.7287 28.2335 40.6079C28.4903 40.4872 28.6885 40.2694 28.7847 40.0024C28.8809 39.7355 28.8671 39.4413 28.7463 39.1845C28.6256 38.9278 28.4078 38.7295 28.1408 38.6333C27.0731 38.2486 25.8962 38.3039 24.8692 38.7869C23.8422 39.2699 23.0491 40.1411 22.6644 41.2088L21.9392 43.2218C21.7468 43.7557 21.3503 44.1913 20.8368 44.4328C20.3232 44.6743 19.7348 44.7019 19.2009 44.5095C18.934 44.4134 18.6398 44.4272 18.383 44.5479C18.1263 44.6687 17.928 44.8865 17.8318 45.1534C17.7357 45.4204 17.7495 45.7146 17.8702 45.9713C17.991 46.2281 18.2088 46.4264 18.4757 46.5225C19.0096 46.7149 19.4452 47.1114 19.6867 47.6249C19.9282 48.1384 19.9558 48.7269 19.7635 49.2607L19.0382 51.2737C18.6535 52.3415 18.7088 53.5183 19.1918 54.5453C19.6748 55.5724 20.546 56.3655 21.6137 56.7502C21.8807 56.8463 22.1749 56.8325 22.4316 56.7118C22.6884 56.591 22.8867 56.3732 22.9828 56.1063C23.079 55.8393 23.0652 55.5451 22.9444 55.2884C22.8237 55.0316 22.6059 54.8333 22.339 54.7372C21.8051 54.5448 21.3695 54.1483 21.128 53.6348C20.8865 53.1213 20.8589 52.5328 21.0512 51.999L21.7764 49.986C21.9826 49.4146 22.0645 48.8058 22.0166 48.2002C21.9686 47.5946 21.792 47.0063 21.4985 46.4744C22.0638 46.252 22.575 45.9115 22.9982 45.4756C23.4213 45.0398 23.7465 44.5186 23.9521 43.947L24.6774 41.934Z" fill="#1E120B"/>
<path d="M32.6481 48.2172C33.2039 48.4174 33.8169 48.1291 34.0172 47.5733C34.2175 47.0174 33.9292 46.4044 33.3733 46.2042C32.8174 46.0039 32.2045 46.2922 32.0042 46.848C31.8039 47.4039 32.0922 48.0169 32.6481 48.2172Z" fill="#1E120B"/>
<path d="M31.1975 52.2433C30.9305 52.1471 30.6363 52.1609 30.3796 52.2816C30.1228 52.4024 29.9246 52.6202 29.8284 52.8871C29.7322 53.1541 29.5339 53.3719 29.2772 53.4926C29.0204 53.6134 28.7262 53.6272 28.4593 53.531C28.1923 53.4348 27.8981 53.4486 27.6414 53.5694C27.3846 53.6901 27.1863 53.9079 27.0902 54.1749C26.994 54.4418 27.0078 54.736 27.1285 54.9928C27.2493 55.2495 27.4671 55.4478 27.734 55.544C28.5348 55.8325 29.4175 55.7911 30.1878 55.4288C30.958 55.0666 31.5528 54.4132 31.8414 53.6124C31.9375 53.3454 31.9237 53.0512 31.803 52.7945C31.6822 52.5377 31.4644 52.3394 31.1975 52.2433ZM43.6671 19.2104L45.1768 19.7543C45.4438 19.8505 45.6616 20.0487 45.7823 20.3055C45.9031 20.5623 45.9169 20.8565 45.8207 21.1234C45.7246 21.3903 45.7384 21.6845 45.8591 21.9413C45.9799 22.1981 46.1977 22.3963 46.4646 22.4925C46.7315 22.5887 47.0257 22.5749 47.2825 22.4541C47.5393 22.3334 47.7375 22.1156 47.8337 21.8486C48.1222 21.0478 48.0808 20.1652 47.7185 19.3949C47.3563 18.6246 46.7029 18.0298 45.9021 17.7413L44.3923 17.1974C43.4581 16.8608 42.4283 16.9091 41.5297 17.3317C40.631 17.7544 39.9371 18.5167 39.6005 19.4509C39.2639 20.3852 39.3122 21.415 39.7348 22.3136C40.1574 23.2123 40.9197 23.9062 41.854 24.2428L42.8605 24.6054C43.2609 24.7497 43.5876 25.0471 43.7687 25.4322C43.9499 25.8174 43.9706 26.2587 43.8263 26.6591C43.6821 27.0595 43.3847 27.3862 42.9995 27.5673C42.6144 27.7485 42.1731 27.7692 41.7727 27.6249L40.2629 27.081C39.996 26.9848 39.7782 26.7865 39.6574 26.5298C39.5367 26.273 39.5229 25.9788 39.6191 25.7119C39.7152 25.4449 39.7014 25.1507 39.5807 24.894C39.4599 24.6372 39.2421 24.4389 38.9752 24.3428C38.7082 24.2466 38.414 24.2604 38.1573 24.3812C37.9005 24.5019 37.7022 24.7197 37.6061 24.9866C37.3176 25.7875 37.359 26.6701 37.7212 27.4404C38.0835 28.2106 38.7369 28.8055 39.5377 29.094L41.0474 29.6379C41.9817 29.9745 43.0114 29.9262 43.9101 29.5035C44.8087 29.0809 45.5027 28.3186 45.8393 27.3843C46.1759 26.4501 46.1276 25.4203 45.705 24.5217C45.2823 23.623 44.52 22.9291 43.5858 22.5925L42.5793 22.2298C42.1789 22.0856 41.8522 21.7882 41.671 21.403C41.4899 21.0179 41.4692 20.5766 41.6134 20.1762C41.7577 19.7758 42.0551 19.4491 42.4403 19.2679C42.8254 19.0868 43.2667 19.0661 43.6671 19.2104Z" fill="#1E120B"/>
<path d="M54.7095 59.5768C55.2653 59.777 55.8783 59.4888 56.0786 58.9329C56.2789 58.377 55.9906 57.7641 55.4347 57.5638C54.8788 57.3635 54.2659 57.6518 54.0656 58.2077C53.8653 58.7635 54.1536 59.3765 54.7095 59.5768Z" fill="#1E120B"/>
<path d="M73.9653 18.7547L27.6667 2.07432C27.3998 1.97815 27.1056 1.99195 26.8488 2.1127C26.5921 2.23345 26.3938 2.45125 26.2976 2.71819L25.2098 5.73766L22.1903 4.64981C21.9234 4.55364 21.6292 4.56745 21.3724 4.6882C21.1156 4.80895 20.9174 5.02675 20.8212 5.29369L1.23984 59.6442C1.14367 59.9111 1.15748 60.2054 1.27823 60.4621C1.39898 60.7189 1.61678 60.9171 1.88372 61.0133L48.1823 77.6937C48.4492 77.7899 48.7435 77.7761 49.0002 77.6553C49.257 77.5346 49.4552 77.3168 49.5514 77.0498L50.6393 74.0304L53.6587 75.1182C53.9257 75.2144 54.2199 75.2006 54.4766 75.0798C54.7334 74.9591 54.9317 74.7413 55.0278 74.4744L74.6092 20.1238C74.7054 19.8569 74.6916 19.5627 74.5708 19.3059C74.4501 19.0492 74.2323 18.8509 73.9653 18.7547ZM22.4716 7.02541L56.6923 19.3544L54.1539 26.3998C53.8654 27.2007 53.9068 28.0833 54.2691 28.8536C54.6313 29.6238 55.2847 30.2187 56.0855 30.5072L63.131 33.0455L60.9553 39.0844L16.6697 23.1293L22.4716 7.02541ZM56.1669 27.1251L58.1925 21.5028L62.433 30.5198L56.8108 28.4942C56.5438 28.398 56.326 28.1997 56.2053 27.943C56.0845 27.6862 56.0707 27.392 56.1669 27.1251ZM53.3775 72.7426L51.3645 72.0174L54.6281 62.959C54.7242 62.692 54.7104 62.3978 54.5897 62.1411C54.4689 61.8843 54.2511 61.686 53.9842 61.5899C53.7172 61.4937 53.423 61.5075 53.1663 61.6282C52.9095 61.749 52.7112 61.9668 52.6151 62.2337L47.901 75.3181L3.61544 59.3629L15.9444 25.1423L60.23 41.0974L55.516 54.1818C55.4198 54.4487 55.4337 54.743 55.5544 54.9997C55.6752 55.2565 55.893 55.4547 56.1599 55.5509C56.4268 55.6471 56.721 55.6333 56.9778 55.5125C57.2346 55.3918 57.4328 55.174 57.529 54.907L65.5066 32.7642C65.6027 32.4973 65.5888 32.2031 65.4681 31.9464L59.0293 18.2553C58.9086 17.9986 58.6909 17.8003 58.424 17.704L27.2228 6.4629L27.948 4.44992L72.2336 20.4051L53.3775 72.7426Z" fill="#1E120B"/>
</svg>
