<svg width="93" height="88" viewBox="0 0 93 88" fill="none" xmlns="http://www.w3.org/2000/svg">
<g opacity="0.56" clip-path="url(#clip0_73_2)">
<path d="M44.7621 37.6896L40.5347 38.6782L42.3697 46.5248L46.5971 45.5361L44.7621 37.6896Z" fill="#C53735"/>
<path d="M80.9555 20.9528L4.90015 38.739L10.4037 62.2728L31.5281 57.3327L32.4453 61.2545L49.3486 57.3015L48.4314 53.3797L86.4591 44.4866L80.9555 20.9528ZM30.611 53.4109L26.3867 54.3987L23.6346 42.6304L19.4103 43.6183L22.1625 55.3866L13.7108 57.3631L10.0422 41.6758L26.9423 37.7236L30.611 53.4109ZM51.7385 48.47L43.2868 50.4465L44.2033 54.3654L35.7548 56.3412L31.1698 36.735L48.0699 32.7827L51.7385 48.47ZM81.3177 41.5526L77.0934 42.5405L74.3413 30.7722L70.1139 31.7608L72.866 43.5291L68.6418 44.517L65.8897 32.7487L61.6654 33.7365L64.4176 45.5049L55.9659 47.4814L52.2973 31.7941L77.6491 25.8654L81.3177 41.5526Z" fill="#C53735"/>
<path d="M20.3064 47.4505L11.8547 49.427L13.7107 57.3631L22.1623 55.3866L20.3064 47.4505Z" fill="#DEDEDE"/>
<path d="M28.755 45.4748L24.5308 46.4626L26.3867 54.3988L30.6109 53.4109L28.755 45.4748Z" fill="#DEDEDE"/>
<path d="M49.8826 40.5338L45.6583 41.5217L46.5971 45.536L42.3697 46.5246L41.4309 42.5103L32.9824 44.4861L35.7555 56.344L44.204 54.3683L43.2868 50.4465L51.7385 48.47L49.8826 40.5338Z" fill="#DEDEDE"/>
<path d="M62.5615 37.5689L54.1099 39.5454L55.9658 47.4815L64.4174 45.505L62.5615 37.5689Z" fill="#DEDEDE"/>
<path d="M71.0099 35.5932L66.7856 36.5811L68.6416 44.5172L72.8658 43.5293L71.0099 35.5932Z" fill="#DEDEDE"/>
<path d="M79.4615 33.6166L75.2373 34.6045L77.0932 42.5406L81.3175 41.5527L79.4615 33.6166Z" fill="#DEDEDE"/>
<path d="M45.6583 41.5219L41.4309 42.5105L42.3697 46.5248L46.5971 45.5362L45.6583 41.5219Z" fill="#AC302E"/>
<path d="M83.686 32.6288L79.4617 33.6167L81.3176 41.5528L77.0934 42.5407L75.2375 34.6046L71.0101 35.5932L72.866 43.5293L68.6418 44.5172L66.7858 36.5811L62.5616 37.5689L64.4175 45.5051L55.9659 47.4815L54.1099 39.5454L49.8825 40.534L51.7385 48.4702L43.2868 50.4467L44.204 54.3685L35.7555 56.3442L32.9824 44.4863L28.755 45.4749L30.6109 53.411L26.3867 54.3989L24.5307 46.4628L20.3065 47.4507L22.1624 55.3868L13.7108 57.3633L11.8549 49.4272L7.63062 50.415L10.4037 62.273L31.5281 57.3329L32.4452 61.2547L49.3485 57.3017L48.4314 53.3799L86.459 44.4867L83.686 32.6288Z" fill="#AC302E"/>
</g>
<defs>
<clipPath id="clip0_73_2">
<rect width="78.1074" height="71.233" fill="white" transform="translate(0 17.7861) rotate(-13.1626)"/>
</clipPath>
</defs>
</svg>
