<svg width="78" height="83" viewBox="0 0 78 83" fill="none" xmlns="http://www.w3.org/2000/svg">
<path d="M68.2637 39.5592C67.7102 39.0719 67.1306 38.5865 66.5247 38.1032C66.8456 37.6605 67.1557 37.2206 67.455 36.7835C73.0792 28.5174 74.894 20.7229 71.7337 16.5961C68.7037 12.6359 61.1836 12.3178 52.2077 15.3086C51.3248 15.6046 50.449 15.922 49.5801 16.2608C49.3305 15.692 49.0718 15.1273 48.8038 14.5665C44.4518 5.5592 38.6076 0.0953035 33.4512 0.771755C28.5078 1.41626 24.4765 7.7752 22.5826 17.0456C22.3957 17.9608 22.2328 18.8784 22.0939 19.7985C21.4752 19.7288 20.8551 19.6704 20.2338 19.6234C10.2598 18.8986 2.60947 21.2322 0.618065 26.0391C-1.29121 30.6432 2.20102 37.3157 9.28566 43.5824C9.9898 44.2005 10.7086 44.8027 11.442 45.3891C10.78 46.2688 10.1637 47.1467 9.5921 48.0146C4.48601 55.7705 2.95361 62.977 5.97329 66.9217C9.09382 70.9995 16.9925 71.4354 26.1416 68.3635C26.8829 68.1137 27.6176 67.8453 28.3457 67.5583C28.7447 68.4834 29.1716 69.3979 29.6262 70.3018C33.7978 78.5977 39.2714 83.5253 44.1984 82.883C49.2897 82.2192 53.6113 75.5886 55.5221 66.128C55.6753 65.3815 55.8042 64.6089 55.9264 63.8163C56.9295 63.9305 57.9359 64.0164 58.9456 64.0741C68.2139 64.6069 75.22 62.3281 77.1226 57.7373C79.0887 52.9922 75.5004 45.9356 68.2637 39.5592ZM3.88442 27.3921C5.11061 24.4345 11.3631 22.5253 19.9762 23.1562C20.5269 23.1957 21.0891 23.2477 21.6626 23.3121C21.3149 27.0418 21.215 30.7905 21.3635 34.5334C18.6158 37.0549 16.0342 39.7515 13.6346 42.6062C12.9542 42.063 12.2868 41.5028 11.6325 40.9256C5.5593 35.5625 2.73482 30.1684 3.88442 27.3921ZM22.91 48.8295C20.6089 47.5136 18.4466 46.1419 16.464 44.7385C18.0175 42.8824 19.7568 41.0105 21.6442 39.1526C21.7777 40.7748 21.9512 42.3932 22.1645 44.0078C22.375 45.6228 22.6235 47.23 22.91 48.8295ZM25.0191 65.0065C21.5636 66.2631 17.9063 66.8729 14.2301 66.8056C13.2313 66.8572 12.2327 66.7034 11.2958 66.3537C10.3589 66.004 9.50367 65.4658 8.78303 64.7724C6.94715 62.3811 8.17993 56.5917 12.5473 49.9593C13.0958 49.1278 13.6688 48.3126 14.2661 47.5138C17.3206 49.6731 20.5146 51.628 23.8271 53.3658C24.6528 57.0679 25.722 60.7115 27.028 64.2727C26.3661 64.5344 25.6953 64.7805 25.0155 65.0111L25.0191 65.0065ZM49.8672 28.1991C48.3772 27.5109 46.8746 26.8536 45.3593 26.2271C43.8646 25.6091 42.3586 25.0219 40.8412 24.4653C43.1427 23.1255 45.4224 21.9389 47.6413 20.9272C48.5051 23.3122 49.248 25.7392 49.8672 28.1991ZM26.0525 17.7499C27.6735 9.81364 30.9363 4.6698 33.9171 4.28117C37.0904 3.86327 41.8652 8.33083 45.6221 16.1046C45.8665 16.6127 46.1003 17.1251 46.3236 17.6416C42.9255 19.2007 39.6343 20.9829 36.4715 22.9764C32.9119 21.84 29.2797 20.945 25.5997 20.2976C25.7307 19.4454 25.8817 18.5961 26.0525 17.7499ZM25.1725 23.8107C27.6819 24.2551 30.1673 24.8258 32.6192 25.5206C29.9331 27.3796 27.3409 29.3613 24.8427 31.4659C24.8296 28.8035 24.9419 26.2376 25.1725 23.8107ZM27.9714 55.431C29.4456 56.1268 30.9359 56.7858 32.4423 57.4078C33.9782 58.0427 35.5276 58.6424 37.0905 59.2069C34.8865 60.5438 32.6153 61.7668 30.2859 62.8709C29.3932 60.4317 28.621 57.9501 27.9719 55.4351L27.9714 55.431ZM52.0568 65.4273C51.4179 69.0475 50.1182 72.5192 48.2227 75.6689C47.7695 76.5601 47.1383 77.3489 46.3682 77.9865C45.5981 78.6241 44.7055 79.097 43.7454 79.376C40.7522 79.7663 36.3571 75.8088 32.7928 68.7114C32.3717 67.8727 31.9741 67.0226 31.6001 66.1611C35.003 64.5521 38.293 62.7141 41.4472 60.6599C45.0456 61.7847 48.7141 62.672 52.4288 63.3161C52.3206 64.0233 52.1966 64.7271 52.0568 65.4273ZM52.8344 59.7974C50.404 59.3794 47.8613 58.8048 45.2541 58.0883C46.5521 57.1758 47.8541 56.2196 49.1602 55.2198C50.5017 54.1931 51.8022 53.1508 53.0617 52.093C53.1178 54.6634 53.0419 57.2349 52.8344 59.7974ZM52.1307 40.0842C52.4559 42.5778 52.7026 45.0789 52.871 47.5873C51.0256 49.2226 49.0651 50.8394 47.0108 52.4101C44.9602 53.976 42.9249 55.4356 40.9121 56.7795C38.5071 55.9907 36.1348 55.1114 33.7952 54.1414C31.4705 53.1779 29.1844 52.1272 26.9371 50.9894C26.4208 48.5235 25.9999 46.0424 25.6744 43.5461C25.3493 41.0524 25.1174 38.5481 24.9788 36.0329C28.7388 32.6769 32.747 29.6097 36.9691 26.8575C39.3444 27.653 41.6901 28.5316 44.0063 29.4935C46.3308 30.4542 48.6232 31.4902 50.8837 32.6012C51.3878 35.0799 51.8035 37.5742 52.1307 40.0842ZM53.3296 18.6615C61.0213 16.1011 67.1009 16.3566 68.9281 18.7448C70.8757 21.2886 69.3922 27.6536 64.5315 34.7929C64.2627 35.187 63.9832 35.584 63.6929 35.9837C60.5924 33.838 57.3494 31.9059 53.9864 30.2008C53.1984 26.5828 52.1692 23.0217 50.9055 19.5412C51.7269 19.2226 52.535 18.9293 53.3296 18.6615ZM54.8755 34.6822C57.1578 35.9315 59.3736 37.2984 61.5142 38.7773C59.8369 40.7822 58.0559 42.6981 56.1786 44.5171C56.0296 42.883 55.8491 41.253 55.6371 39.6271C55.4216 37.9738 55.1677 36.3255 54.8755 34.6822ZM73.8599 56.3797C72.7031 59.1654 67.0793 60.9968 59.1493 60.5442C58.2406 60.4928 57.3058 60.4115 56.3448 60.3002C56.6486 56.5682 56.6998 52.82 56.4981 49.0812C59.3014 46.536 61.9263 43.8011 64.3542 40.8957C64.904 41.3335 65.4288 41.7717 65.9286 42.2104C68.7463 44.5721 71.1051 47.4324 72.8871 50.6482C73.4325 51.4863 73.8002 52.4273 73.9676 53.4131C74.1349 54.399 74.0982 55.4086 73.8599 56.3797ZM34.3632 35.8867C33.2019 36.7757 32.3302 37.989 31.8584 39.3733C31.3865 40.7577 31.3358 42.2508 31.7125 43.664C32.0893 45.0771 32.8766 46.3469 33.9749 47.3126C35.0733 48.2783 36.4333 48.8967 37.883 49.0895C39.3328 49.2824 40.8072 49.041 42.1197 48.3959C43.4323 47.7508 44.5242 46.7311 45.2572 45.4655C45.9902 44.2 46.3315 42.7455 46.238 41.2859C46.1444 39.8264 45.6202 38.4274 44.7315 37.2658C44.1414 36.4943 43.405 35.8467 42.5645 35.3599C41.724 34.8731 40.7959 34.5566 39.8331 34.4285C38.8702 34.3004 37.8916 34.3633 36.9531 34.6135C36.0146 34.8637 35.1345 35.2964 34.3632 35.8867Z" fill="#6563FF"/>
</svg>
